<svg fill="#4D4D4D" xmlns="http://www.w3.org/2000/svg"  viewBox="0 0 512 512" width="128px" height="128px"><path d="M 260.58594 56.5 A 15.459 15.459 0 0 0 260.58594 87.417969 L 477.06055 87.417969 A 15.459 15.459 0 0 0 477.06055 56.5 L 260.58594 56.5 z M 263.17578 97.417969 C 263.63478 105.40897 264.03953 113.10545 264.39453 120.56445 L 67.732422 123.33203 A 24.166 24.166 0 1 0 43.669922 149.6875 A 24.2 24.2 0 0 0 47.669922 149.35156 L 96.951172 405.71875 A 203.939 203.939 0 0 1 72.515625 409.54492 L 72.515625 444.53516 A 302.011 302.011 0 0 0 114.99219 446.57422 C 108.92819 437.51222 106.24292 426.58288 107.16992 414.42188 A 68.676 68.676 0 0 1 109.10742 402.76367 C 108.29042 402.98567 107.48945 403.19434 106.68945 403.40234 L 57.130859 145.58594 A 24.269 24.269 0 0 0 66.529297 133.35156 L 264.84375 130.56055 C 265.28375 141.12921 265.58719 151.17708 265.75586 160.70508 A 405.826 405.826 0 0 0 331.80859 176.48047 C 367.74859 181.96547 419.95755 184.69084 466.18555 167.08984 A 505.869 505.869 0 0 0 475.68555 97.417969 L 263.17578 97.417969 z M 302.88867 114.89453 A 19.336 19.336 0 1 1 283.56445 134.22852 A 19.35 19.35 0 0 1 302.88867 114.89453 z M 439.05664 118.84961 A 19.336 19.336 0 1 1 419.73242 138.18555 A 19.351 19.351 0 0 1 439.05664 118.84961 z M 369.58984 123.21094 A 19.336 19.336 0 1 1 350.26562 142.54688 A 19.351 19.351 0 0 1 369.58984 123.21094 z M 303.30078 124.90234 A 9.336 9.336 0 0 0 293.56445 134.22852 A 9.341 9.341 0 0 0 302.88867 143.56641 A 9.336 9.336 0 0 0 303.30078 124.90234 z M 439.46875 128.85742 A 9.336 9.336 0 0 0 429.73242 138.18555 A 9.34 9.34 0 0 0 439.05664 147.52148 A 9.336 9.336 0 0 0 439.46875 128.85742 z M 370.00391 133.21875 A 9.336 9.336 0 0 0 360.26562 142.54688 A 9.339 9.339 0 0 0 369.58984 151.88281 A 9.336 9.336 0 0 0 370.00391 133.21875 z M 265.87109 171.29102 C 265.93509 185.60302 265.60797 198.77538 264.79297 210.98438 C 265.69497 211.31138 266.768 211.69219 268 212.11719 L 277.19336 174.75391 C 272.61036 173.43491 268.80409 172.24702 265.87109 171.29102 z M 286.8418 177.39648 L 277.53711 215.21289 C 281.46711 216.41289 286.02395 217.72569 291.12695 219.05469 L 300.91602 180.81445 C 295.84202 179.67245 291.1308 178.51348 286.8418 177.39648 z M 463.61133 178.64258 C 459.01866 180.20991 454.38928 181.60351 449.72461 182.82617 L 451.77148 216.46484 C 452.19248 216.30684 452.6122 216.14247 453.0332 215.98047 C 456.8332 204.60147 460.42133 192.14058 463.61133 178.64258 z M 310.70508 182.89844 L 300.83984 221.43555 C 305.43184 222.49255 310.33991 223.52247 315.50391 224.48047 L 325.31641 185.57031 C 320.23141 184.73131 315.35008 183.83144 310.70508 182.89844 z M 439.84766 185.16797 C 435.41766 186.10797 430.97788 186.89822 426.54688 187.57422 L 428.59961 223.54883 C 433.05561 222.48216 437.50894 221.24952 441.96094 219.85352 L 439.84766 185.16797 z M 335.24805 187.08594 L 325.39258 226.16406 C 330.27758 226.92106 335.49347 227.61536 340.98047 228.19336 L 346.75195 188.51562 C 342.78462 188.08362 338.94938 187.6066 335.24805 187.08594 z M 416.60547 188.89453 C 412.07447 189.40053 407.56761 189.77869 403.09961 190.05469 L 403.09961 228.07812 C 408.26161 227.46013 413.46374 226.6573 418.70508 225.66797 L 416.60547 188.89453 z M 356.71875 189.4668 L 350.95703 229.07812 C 356.17303 229.45812 361.58348 229.71831 367.14648 229.82031 L 370.76367 190.33594 C 365.96767 190.13594 361.28675 189.84613 356.71875 189.4668 z M 393.0957 190.5 C 390.2197 190.58 387.3583 190.62891 384.5293 190.62891 C 383.27463 190.62891 382.02592 190.62209 380.78125 190.60742 L 377.1875 229.82617 C 382.3965 229.73417 387.7087 229.49331 393.0957 229.07031 L 393.0957 190.5 z M 263.96094 221.31836 C 263.39894 227.25836 262.69738 232.97165 261.85938 238.45898 A 326 326 0 0 0 317.90234 252.6582 C 349.63034 257.8222 396.72255 260.58686 442.06055 244.88086 C 444.30855 239.65686 446.53738 234.08039 448.74805 228.15039 C 422.76605 236.88139 396.29897 239.86914 372.29297 239.86914 A 318.911 318.911 0 0 1 322.66016 235.86133 A 345.288 345.288 0 0 1 263.96094 221.31836 z M 260.125 248.46875 A 175.744 175.744 0 0 1 246.64258 290.60742 C 221.84258 342.81642 182.54336 371.74169 149.94336 387.55469 A 71.469 71.469 0 0 0 144.19531 407.46094 C 142.29531 422.04994 145.83631 434.26192 154.69531 443.79492 C 165.28031 442.49492 176.54722 440.658 188.32422 438.125 A 376.5 376.5 0 0 0 301.37695 393.90039 C 345.10295 367.98339 384.17563 332.77591 417.51562 289.25391 C 422.95463 282.15391 429.60203 271.37359 436.45703 257.18359 C 412.64803 264.23559 388.72453 266.71289 366.89453 266.71289 A 317.133 317.133 0 0 1 316.03711 262.48633 A 335.111 335.111 0 0 1 260.125 248.46875 z M 137.09961 393.28906 C 136.95961 393.34606 136.81769 393.40784 136.67969 393.46484 C 131.15169 395.71384 125.77977 397.64917 120.63477 399.32617 A 59.891 59.891 0 0 0 117.11719 415.48633 C 116.24719 427.82433 119.72517 438.12925 127.45117 446.15625 C 132.36917 445.90825 137.52744 445.54964 142.89844 445.05664 C 135.27144 434.15664 132.30922 420.78608 134.32422 405.83008 A 79.115 79.115 0 0 1 137.09961 393.28906 z M 55.777344 398.16797 A 6.627 6.627 0 0 0 49.263672 404.875 L 49.263672 448.86133 A 6.627 6.627 0 1 0 62.515625 448.86133 L 62.515625 404.875 A 6.627 6.627 0 0 0 55.777344 398.16797 z"/></svg>